<?xml version="1.0" encoding="UTF-8" standalone="no"?>
<!-- Created with Inkscape (http://www.inkscape.org/) -->

<svg
   width="100"
   height="100"
   viewBox="0 0 26.458333 26.458334"
   version="1.1"
   id="svg5"
   inkscape:version="1.1 (c68e22c387, 2021-05-23)"
   sodipodi:docname="delete.svg"
   xmlns:inkscape="http://www.inkscape.org/namespaces/inkscape"
   xmlns:sodipodi="http://sodipodi.sourceforge.net/DTD/sodipodi-0.dtd"
   xmlns="http://www.w3.org/2000/svg"
   xmlns:svg="http://www.w3.org/2000/svg">
  <sodipodi:namedview
     id="namedview7"
     pagecolor="#ffffff"
     bordercolor="#666666"
     borderopacity="1.0"
     inkscape:pageshadow="2"
     inkscape:pageopacity="0.0"
     inkscape:pagecheckerboard="0"
     inkscape:document-units="mm"
     showgrid="false"
     units="px"
     inkscape:zoom="5.9295174"
     inkscape:cx="45.956523"
     inkscape:cy="55.232151"
     inkscape:window-width="1920"
     inkscape:window-height="1017"
     inkscape:window-x="1912"
     inkscape:window-y="-8"
     inkscape:window-maximized="1"
     inkscape:current-layer="layer1" />
  <defs
     id="defs2" />
  <g
     inkscape:label="Layer 1"
     inkscape:groupmode="layer"
     id="layer1">
    <circle
       style="fill:#ff0000;stroke:none;stroke-width:0;stroke-linejoin:round"
       id="path126"
       cx="-13.229166"
       cy="13.229166"
       transform="scale(-1,1)"
       r="12.567708" />
    <rect
       style="fill:#ffffff;stroke:none;stroke-width:0;stroke-linejoin:round;fill-opacity:1"
       id="rect179"
       width="23.8125"
       height="2.6458318"
       x="6.8026175"
       y="-1.3229163"
       transform="rotate(45)" />
    <rect
       style="fill:#ffffff;stroke:none;stroke-width:0;stroke-linejoin:round;fill-opacity:1"
       id="rect179-2"
       width="23.8125"
       height="2.6458318"
       x="-11.90625"
       y="-20.031782"
       transform="rotate(135)" />
    <path
       id="path31"
       style="fill:#ffffff;stroke:none;stroke-width:0;stroke-linejoin:round;fill-opacity:1"
       d="M 50 0 A 50.000001 50.000001 0 0 0 0 50 A 50.000001 50.000001 0 0 0 50 100 A 50.000001 50.000001 0 0 0 100 50 A 50.000001 50.000001 0 0 0 50 0 z M 50 5 A 45 45 0 0 1 95 50 A 45 45 0 0 1 50 95 A 45 45 0 0 1 5 50 A 45 45 0 0 1 50 5 z "
       transform="scale(0.26458333)" />
  </g>
</svg>
